<svg width="300" height="300" xmlns="http://www.w3.org/2000/svg">
  <defs>
    <!-- Y?ld?z ?ekli (büyük) -->
    <g id="star-big">
      <path d="M30,8 L36,24 L54,24 L40,34 L46,50 L30,40 L14,50 L20,34 L6,24 L24,24 Z" 
            fill="#FFD700" opacity="0.25"/>
    </g>
    
    <!-- Y?ld?z ?ekli (orta) -->
    <g id="star-medium">
      <path d="M20,5 L24,15 L35,15 L26,22 L30,32 L20,25 L10,32 L14,22 L5,15 L16,15 Z" 
            fill="#FFD700" opacity="0.25"/>
    </g>
    
    <!-- Y?ld?z ?ekli (küçük) -->
    <g id="star-small">
      <path d="M15,4 L18,11 L26,11 L20,16 L23,23 L15,19 L7,23 L10,16 L4,11 L12,11 Z" 
            fill="#FFD700" opacity="0.2"/>
    </g>
    
    <!-- Kalp ?ekli (büyük) -->
    <g id="heart-big">
      <path d="M30,20 C30,12 22,8 18,12 C14,8 6,12 6,20 C6,24 12,30 18,36 C24,30 30,24 30,20 Z" 
            fill="#FF69B4" opacity="0.25"/>
    </g>
    
    <!-- Kalp ?ekli (orta) -->
    <g id="heart-medium">
      <path d="M20,15 C20,10 15,8 12,10 C9,8 4,10 4,15 C4,18 8,22 12,25 C16,22 20,18 20,15 Z" 
            fill="#FF69B4" opacity="0.25"/>
    </g>
    
    <!-- Kalp ?ekli (küçük) -->
    <g id="heart-small">
      <path d="M15,12 C15,8 12,6 10,8 C8,6 5,8 5,12 C5,14 7,16 10,18 C13,16 15,14 15,12 Z" 
            fill="#FF69B4" opacity="0.2"/>
    </g>
    
    <!-- Bulut ?ekli (büyük) -->
    <g id="cloud-big">
      <ellipse cx="30" cy="30" rx="18" ry="12" fill="#87CEEB" opacity="0.2"/>
      <ellipse cx="22" cy="27" rx="12" ry="9" fill="#87CEEB" opacity="0.2"/>
      <ellipse cx="38" cy="27" rx="12" ry="9" fill="#87CEEB" opacity="0.2"/>
    </g>
    
    <!-- Bulut ?ekli (küçük) -->
    <g id="cloud-small">
      <ellipse cx="20" cy="20" rx="12" ry="8" fill="#87CEEB" opacity="0.2"/>
      <ellipse cx="15" cy="18" rx="8" ry="6" fill="#87CEEB" opacity="0.2"/>
      <ellipse cx="25" cy="18" rx="8" ry="6" fill="#87CEEB" opacity="0.2"/>
    </g>
    
    <!-- Güne? ?ekli -->
    <g id="sun">
      <circle cx="25" cy="25" r="12" fill="#FFD700" opacity="0.2"/>
      <path d="M25,5 L25,10 M25,40 L25,45 M5,25 L10,25 M40,25 L45,25 M10,10 L13,13 M37,13 L40,10 M10,40 L13,37 M37,37 L40,40" 
            stroke="#FFD700" stroke-width="2" opacity="0.25"/>
    </g>
    
    <!-- Ay ?ekli -->
    <g id="moon">
      <path d="M20,15 C20,8 15,5 12,8 C9,5 4,8 4,15 C4,20 8,24 12,26 C15,24 20,20 20,15 Z" 
            fill="#E6E6FA" opacity="0.25"/>
      <circle cx="15" cy="18" r="3" fill="#F0F0F0" opacity="0.3"/>
    </g>
    
    <!-- Kelebek ?ekli (basitle?tirilmi?) -->
    <g id="butterfly">
      <ellipse cx="25" cy="25" rx="8" ry="12" fill="#FFB6C1" opacity="0.2"/>
      <ellipse cx="18" cy="20" rx="6" ry="8" fill="#FFB6C1" opacity="0.2"/>
      <ellipse cx="32" cy="20" rx="6" ry="8" fill="#FFB6C1" opacity="0.2"/>
      <ellipse cx="18" cy="30" rx="6" ry="8" fill="#FFB6C1" opacity="0.2"/>
      <ellipse cx="32" cy="30" rx="6" ry="8" fill="#FFB6C1" opacity="0.2"/>
      <circle cx="25" cy="25" r="2" fill="#FF69B4" opacity="0.3"/>
    </g>
    
    <!-- Balon ?ekli -->
    <g id="balloon">
      <ellipse cx="25" cy="20" rx="10" ry="12" fill="#FF69B4" opacity="0.25"/>
      <line x1="25" y1="32" x2="25" y2="40" stroke="#FF69B4" stroke-width="1.5" opacity="0.25"/>
      <path d="M20,40 Q25,42 30,40" stroke="#FF69B4" stroke-width="1" fill="none" opacity="0.25"/>
    </g>
    
    <!-- Çiçek ?ekli -->
    <g id="flower">
      <circle cx="25" cy="25" r="6" fill="#FFB6C1" opacity="0.25"/>
      <circle cx="20" cy="20" r="5" fill="#FFB6C1" opacity="0.2"/>
      <circle cx="30" cy="20" r="5" fill="#FFB6C1" opacity="0.2"/>
      <circle cx="20" cy="30" r="5" fill="#FFB6C1" opacity="0.2"/>
      <circle cx="30" cy="30" r="5" fill="#FFB6C1" opacity="0.2"/>
      <circle cx="25" cy="25" r="3" fill="#FFD700" opacity="0.3"/>
    </g>
    
    <!-- Tekrar eden pattern - 4 kö?eden içeri do?ru azalan -->
    <pattern id="childrenPattern" x="0" y="0" width="300" height="300" patternUnits="userSpaceOnUse">
      <!-- SOL ÜST KÖ?E (0-100, 0-100) -->
      <!-- Kö?ede büyük icon'lar -->
      <use href="#star-big" x="20" y="20" transform="scale(0.7)"/>
      <use href="#heart-big" x="60" y="30" transform="scale(0.65)"/>
      <use href="#sun" x="30" y="60" transform="scale(0.7)"/>
      <!-- ?çeri do?ru orta boy -->
      <use href="#star-medium" x="50" y="50" transform="scale(0.5)"/>
      <use href="#heart-medium" x="80" y="60" transform="scale(0.45)"/>
      <use href="#cloud-big" x="40" y="80" transform="scale(0.6)"/>
      <use href="#butterfly" x="70" y="40" transform="scale(0.5)"/>
      <!-- Daha içeride küçük -->
      <use href="#star-small" x="70" y="70" transform="scale(0.4)"/>
      <use href="#heart-small" x="90" y="80" transform="scale(0.35)"/>
      <use href="#balloon" x="60" y="90" transform="scale(0.4)"/>
      <use href="#flower" x="85" y="70" transform="scale(0.4)"/>
      <use href="#moon" x="75" y="85" transform="scale(0.4)"/>
      <!-- Küçük noktalar -->
      <circle cx="15" cy="15" r="2.5" fill="#FFD700" opacity="0.2"/>
      <circle cx="45" cy="25" r="2" fill="#FF69B4" opacity="0.2"/>
      <circle cx="25" cy="45" r="2.5" fill="#87CEEB" opacity="0.2"/>
      <circle cx="55" cy="55" r="2" fill="#FFB6C1" opacity="0.2"/>
      
      <!-- SA? ÜST KÖ?E (200-300, 0-100) -->
      <!-- Kö?ede büyük icon'lar -->
      <use href="#star-big" x="250" y="20" transform="scale(0.7)"/>
      <use href="#heart-big" x="210" y="30" transform="scale(0.65)"/>
      <use href="#sun" x="240" y="60" transform="scale(0.7)"/>
      <!-- ?çeri do?ru orta boy -->
      <use href="#star-medium" x="220" y="50" transform="scale(0.5)"/>
      <use href="#heart-medium" x="190" y="60" transform="scale(0.45)"/>
      <use href="#cloud-big" x="230" y="80" transform="scale(0.6)"/>
      <use href="#butterfly" x="200" y="40" transform="scale(0.5)"/>
      <!-- Daha içeride küçük -->
      <use href="#star-small" x="200" y="70" transform="scale(0.4)"/>
      <use href="#heart-small" x="180" y="80" transform="scale(0.35)"/>
      <use href="#balloon" x="210" y="90" transform="scale(0.4)"/>
      <use href="#flower" x="185" y="70" transform="scale(0.4)"/>
      <use href="#moon" x="195" y="85" transform="scale(0.4)"/>
      <!-- Küçük noktalar -->
      <circle cx="285" cy="15" r="2.5" fill="#FFD700" opacity="0.2"/>
      <circle cx="255" cy="25" r="2" fill="#FF69B4" opacity="0.2"/>
      <circle cx="275" cy="45" r="2.5" fill="#87CEEB" opacity="0.2"/>
      <circle cx="245" cy="55" r="2" fill="#FFB6C1" opacity="0.2"/>
      
      <!-- SOL ALT KÖ?E (0-100, 200-300) -->
      <!-- Kö?ede büyük icon'lar -->
      <use href="#star-big" x="20" y="250" transform="scale(0.7)"/>
      <use href="#heart-big" x="60" y="240" transform="scale(0.65)"/>
      <use href="#sun" x="30" y="210" transform="scale(0.7)"/>
      <!-- ?çeri do?ru orta boy -->
      <use href="#star-medium" x="50" y="220" transform="scale(0.5)"/>
      <use href="#heart-medium" x="80" y="210" transform="scale(0.45)"/>
      <use href="#cloud-big" x="40" y="190" transform="scale(0.6)"/>
      <use href="#butterfly" x="70" y="230" transform="scale(0.5)"/>
      <!-- Daha içeride küçük -->
      <use href="#star-small" x="70" y="200" transform="scale(0.4)"/>
      <use href="#heart-small" x="90" y="190" transform="scale(0.35)"/>
      <use href="#balloon" x="60" y="180" transform="scale(0.4)"/>
      <use href="#flower" x="85" y="200" transform="scale(0.4)"/>
      <use href="#moon" x="75" y="185" transform="scale(0.4)"/>
      <!-- Küçük noktalar -->
      <circle cx="15" cy="285" r="2.5" fill="#FFD700" opacity="0.2"/>
      <circle cx="45" cy="275" r="2" fill="#FF69B4" opacity="0.2"/>
      <circle cx="25" cy="255" r="2.5" fill="#87CEEB" opacity="0.2"/>
      <circle cx="55" cy="245" r="2" fill="#FFB6C1" opacity="0.2"/>
      
      <!-- SA? ALT KÖ?E (200-300, 200-300) -->
      <!-- Kö?ede büyük icon'lar -->
      <use href="#star-big" x="250" y="250" transform="scale(0.7)"/>
      <use href="#heart-big" x="210" y="240" transform="scale(0.65)"/>
      <use href="#sun" x="240" y="210" transform="scale(0.7)"/>
      <!-- ?çeri do?ru orta boy -->
      <use href="#star-medium" x="220" y="220" transform="scale(0.5)"/>
      <use href="#heart-medium" x="190" y="210" transform="scale(0.45)"/>
      <use href="#cloud-big" x="230" y="190" transform="scale(0.6)"/>
      <use href="#butterfly" x="200" y="230" transform="scale(0.5)"/>
      <!-- Daha içeride küçük -->
      <use href="#star-small" x="200" y="200" transform="scale(0.4)"/>
      <use href="#heart-small" x="180" y="190" transform="scale(0.35)"/>
      <use href="#balloon" x="210" y="180" transform="scale(0.4)"/>
      <use href="#flower" x="185" y="200" transform="scale(0.4)"/>
      <use href="#moon" x="195" y="185" transform="scale(0.4)"/>
      <!-- Küçük noktalar -->
      <circle cx="285" cy="285" r="2.5" fill="#FFD700" opacity="0.2"/>
      <circle cx="255" cy="275" r="2" fill="#FF69B4" opacity="0.2"/>
      <circle cx="275" cy="255" r="2.5" fill="#87CEEB" opacity="0.2"/>
      <circle cx="245" cy="245" r="2" fill="#FFB6C1" opacity="0.2"/>
      
      <!-- ORTA KISIM (100-200, 100-200) BO? KALACAK - hiçbir ?ey eklenmedi -->
    </pattern>
  </defs>
  
  <!-- Arka plan -->
  <rect width="300" height="300" fill="#FEF9F3"/>
  
  <!-- Pattern uygula -->
  <rect width="300" height="300" fill="url(#childrenPattern)"/>
</svg>
